<svg width="181" height="24" viewBox="0 0 181 24" fill="none" xmlns="http://www.w3.org/2000/svg">
<path d="M2.432 15.192C2.83733 15.512 3.53067 15.9493 4.512 16.504C5.51467 17.0587 6.464 17.336 7.36 17.336C8.27733 17.336 8.736 16.984 8.736 16.28C8.736 15.96 8.608 15.6827 8.352 15.448C8.096 15.192 7.62667 14.904 6.944 14.584C6.26133 14.264 5.74933 14.0187 5.408 13.848C5.06667 13.656 4.608 13.3573 4.032 12.952C3.47733 12.5253 3.05067 12.088 2.752 11.64C1.89867 10.424 1.472 8.87733 1.472 7C1.472 5.12267 2.16533 3.544 3.552 2.264C4.96 0.962666 6.79467 0.311998 9.056 0.311998C10.592 0.311998 12.0107 0.482665 13.312 0.823999C14.6133 1.144 15.2853 1.57067 15.328 2.104C15.328 2.168 15.328 2.232 15.328 2.296C15.328 3.04267 15.0933 3.992 14.624 5.144C14.1547 6.27467 13.824 6.904 13.632 7.032C12.2667 6.328 11.04 5.976 9.952 5.976C8.88533 5.976 8.352 6.36 8.352 7.128C8.352 7.59733 8.74667 8.01333 9.536 8.376C9.70667 8.46133 9.952 8.57867 10.272 8.728C10.592 8.87733 10.9547 9.05867 11.36 9.272C11.7867 9.464 12.2347 9.72 12.704 10.04C13.1947 10.3387 13.7173 10.744 14.272 11.256C15.4027 12.3227 15.968 13.7307 15.968 15.48C15.968 17.7627 15.3387 19.6293 14.08 21.08C12.8213 22.5307 10.88 23.2773 8.256 23.32C6.976 23.32 5.81333 23.2133 4.768 23C3.744 22.7867 2.848 22.3707 2.08 21.752C1.312 21.1333 0.928 20.3867 0.928 19.512C0.928 18.6373 1.088 17.7733 1.408 16.92C1.728 16.0453 2.06933 15.4693 2.432 15.192ZM28.2 9.496C28.6053 9.496 28.808 10.2427 28.808 11.736C28.808 12.184 28.7547 12.7173 28.648 13.336C28.5627 13.9333 28.392 14.232 28.136 14.232H24.072V17.432H29.96C30.3227 17.432 30.568 17.9013 30.696 18.84C30.76 19.2453 30.792 19.6827 30.792 20.152C30.792 20.6 30.728 21.1867 30.6 21.912C30.472 22.6373 30.2587 23 29.96 23H19.016C18.2053 23 17.8 22.6693 17.8 22.008V1.432C17.8 0.877332 18.0453 0.599998 18.536 0.599998H29.992C30.44 0.599998 30.664 1.54933 30.664 3.448C30.664 5.32533 30.44 6.264 29.992 6.264H24.072V9.496H28.2ZM42.2852 23.32C39.2986 23.32 36.8559 22.3387 34.9572 20.376C33.0799 18.4133 32.1412 15.5547 32.1412 11.8C32.1412 8.024 33.0906 5.16533 34.9892 3.224C36.9092 1.28267 39.3733 0.311998 42.3813 0.311998C45.4106 0.311998 47.8533 1.272 49.7093 3.192C51.5653 5.09067 52.4932 7.98133 52.4932 11.864C52.4932 15.7253 51.5439 18.6053 49.6453 20.504C47.7466 22.3813 45.2933 23.32 42.2852 23.32ZM42.3173 6.456C41.2933 6.456 40.4293 6.92533 39.7253 7.864C39.0426 8.80267 38.7013 10.1253 38.7013 11.832C38.7013 13.5173 39.0319 14.8187 39.6932 15.736C40.3546 16.632 41.2186 17.08 42.2852 17.08C43.3733 17.08 44.2479 16.6213 44.9093 15.704C45.5919 14.7867 45.9333 13.4747 45.9333 11.768C45.9333 10.0613 45.5813 8.74933 44.8773 7.832C44.1946 6.91467 43.3413 6.456 42.3173 6.456ZM58.1817 20.12C58.1817 19.5013 58.3631 18.7867 58.7257 17.976C59.0884 17.144 59.4831 16.5787 59.9097 16.28C60.7204 16.8773 61.5417 17.176 62.3737 17.176L63.3657 17.016C64.5177 16.6747 65.1151 15.7573 65.1577 14.264V6.104H62.5977C62.2351 6.104 61.9791 5.64533 61.8297 4.728C61.7657 4.28 61.7337 3.82133 61.7337 3.352C61.7337 2.88267 61.7657 2.424 61.8297 1.976C61.9791 1.05867 62.2351 0.599998 62.5977 0.599998H70.2137C70.6404 0.599998 70.9604 0.727999 71.1737 0.983999C71.3871 1.21867 71.4937 1.50667 71.4937 1.848V16.952C71.4937 19.0427 70.7897 20.632 69.3818 21.72C67.9951 22.808 66.3204 23.352 64.3577 23.352C62.4164 23.352 60.9017 23.064 59.8137 22.488C58.7257 21.912 58.1817 21.1227 58.1817 20.12ZM88.515 23.064C86.659 23.064 85.6563 22.7653 85.507 22.168L84.451 18.04H79.363L78.435 22.008C78.307 22.6693 77.283 23 75.363 23C74.339 23 73.5817 22.9467 73.091 22.84C72.6003 22.712 72.355 22.616 72.355 22.552L78.019 0.887999C78.019 0.717332 79.4803 0.631998 82.403 0.631998C85.3257 0.631998 86.787 0.717332 86.787 0.887999L92.323 22.584C92.323 22.7333 91.8323 22.8507 90.851 22.936C89.8697 23.0213 89.091 23.064 88.515 23.064ZM80.163 13.976H83.523L82.083 7.352H81.891L80.163 13.976ZM104.044 9.496C104.449 9.496 104.652 10.2427 104.652 11.736C104.652 12.184 104.598 12.7173 104.492 13.336C104.406 13.9333 104.236 14.232 103.98 14.232H99.9157V17.432H105.804C106.166 17.432 106.412 17.9013 106.54 18.84C106.604 19.2453 106.636 19.6827 106.636 20.152C106.636 20.6 106.572 21.1867 106.444 21.912C106.316 22.6373 106.102 23 105.804 23H94.8597C94.0491 23 93.6437 22.6693 93.6437 22.008V1.432C93.6437 0.877332 93.8891 0.599998 94.3797 0.599998H105.836C106.284 0.599998 106.508 1.54933 106.508 3.448C106.508 5.32533 106.284 6.264 105.836 6.264H99.9157V9.496H104.044ZM112.928 0.919998C112.864 0.685332 113.942 0.567999 116.16 0.567999C118.614 0.567999 119.872 0.770665 119.936 1.176L121.504 14.648L124.896 1.016C125.003 0.695999 125.835 0.535999 127.392 0.535999C128.95 0.535999 129.782 0.685333 129.888 0.983999L133.216 14.712L135.072 1.112C135.115 0.877332 135.606 0.717332 136.544 0.631998C137.483 0.546666 138.24 0.504 138.816 0.504C141.056 0.504 142.144 0.653333 142.08 0.952L138.208 22.168C138.123 22.488 137.515 22.7227 136.384 22.872C135.254 23.0213 134.336 23.096 133.632 23.096C130.987 23.096 129.6 22.7973 129.472 22.2L127.296 13.4L124.928 22.168C124.843 22.552 124.096 22.8293 122.688 23C121.963 23.064 121.238 23.096 120.512 23.096L118.464 23C117.056 22.8507 116.31 22.584 116.224 22.2L112.928 0.919998ZM157.471 23.064C155.615 23.064 154.613 22.7653 154.463 22.168L153.407 18.04H148.319L147.391 22.008C147.263 22.6693 146.239 23 144.319 23C143.295 23 142.538 22.9467 142.047 22.84C141.557 22.712 141.311 22.616 141.311 22.552L146.975 0.887999C146.975 0.717332 148.437 0.631998 151.359 0.631998C154.282 0.631998 155.743 0.717332 155.743 0.887999L161.279 22.584C161.279 22.7333 160.789 22.8507 159.807 22.936C158.826 23.0213 158.047 23.064 157.471 23.064ZM149.119 13.976H152.479L151.039 7.352H150.847L149.119 13.976ZM180.136 22.296C180.136 22.744 179.133 22.968 177.128 22.968C175.123 22.968 174.035 22.808 173.864 22.488L168.52 12.504V22.456C168.52 22.84 167.528 23.032 165.544 23.032C163.581 23.032 162.6 22.84 162.6 22.456V1.048C162.6 0.727999 163.443 0.567999 165.128 0.567999C165.789 0.567999 166.557 0.631999 167.432 0.759998C168.328 0.866665 168.872 1.08 169.064 1.4L174.184 11.256V1.208C174.184 0.802665 175.176 0.599998 177.16 0.599998C179.144 0.599998 180.136 0.802665 180.136 1.208V22.296Z" fill="black"/>
</svg>
