<svg width="685" height="98" viewBox="0 0 685 98" fill="none" xmlns="http://www.w3.org/2000/svg">
<path d="M635.442 27.0909H647.498L659.107 49.0156H659.604L671.212 27.0909H683.268L664.7 60.0028V78H654.011V60.0028L635.442 27.0909Z" fill="black"/>
<path d="M636.207 52.5455C636.207 58.0971 635.155 62.8201 633.05 66.7145C630.962 70.6089 628.112 73.5836 624.499 75.6385C620.903 77.6768 616.86 78.696 612.369 78.696C607.844 78.696 603.784 77.6686 600.188 75.6136C596.592 73.5587 593.75 70.584 591.662 66.6896C589.574 62.7952 588.53 58.0805 588.53 52.5455C588.53 46.9938 589.574 42.2708 591.662 38.3764C593.75 34.482 596.592 31.5156 600.188 29.4773C603.784 27.4223 607.844 26.3949 612.369 26.3949C616.86 26.3949 620.903 27.4223 624.499 29.4773C628.112 31.5156 630.962 34.482 633.05 38.3764C635.155 42.2708 636.207 46.9938 636.207 52.5455ZM625.295 52.5455C625.295 48.9493 624.756 45.9167 623.679 43.4474C622.618 40.9782 621.119 39.1056 619.18 37.8295C617.241 36.5535 614.97 35.9155 612.369 35.9155C609.767 35.9155 607.496 36.5535 605.558 37.8295C603.619 39.1056 602.111 40.9782 601.033 43.4474C599.973 45.9167 599.442 48.9493 599.442 52.5455C599.442 56.1416 599.973 59.1742 601.033 61.6435C602.111 64.1127 603.619 65.9853 605.558 67.2614C607.496 68.5374 609.767 69.1754 612.369 69.1754C614.97 69.1754 617.241 68.5374 619.18 67.2614C621.119 65.9853 622.618 64.1127 623.679 61.6435C624.756 59.1742 625.295 56.1416 625.295 52.5455Z" fill="black"/>
<path d="M569.808 27.0909H580.447V62.5881C580.447 65.8693 579.71 68.7197 578.235 71.1392C576.777 73.5587 574.747 75.4231 572.145 76.7322C569.543 78.0414 566.519 78.696 563.072 78.696C560.006 78.696 557.222 78.1574 554.719 77.0803C552.234 75.9865 550.262 74.3293 548.803 72.1087C547.345 69.8714 546.624 67.0625 546.641 63.6818H557.354C557.388 65.0241 557.661 66.1759 558.175 67.1371C558.705 68.0817 559.426 68.8108 560.337 69.3246C561.265 69.8217 562.359 70.0703 563.619 70.0703C564.944 70.0703 566.063 69.7886 566.974 69.2251C567.902 68.6451 568.607 67.8 569.087 66.6896C569.568 65.5793 569.808 64.2121 569.808 62.5881V27.0909Z" fill="black"/>
<path d="M534.535 39.8182V47.7727H511.541V39.8182H534.535ZM516.761 30.6705H527.351V66.267C527.351 67.2448 527.5 68.0071 527.798 68.554C528.097 69.0843 528.511 69.4571 529.041 69.6726C529.588 69.888 530.218 69.9957 530.93 69.9957C531.428 69.9957 531.925 69.9543 532.422 69.8714C532.919 69.772 533.3 69.6974 533.565 69.6477L535.231 77.5277C534.701 77.6934 533.955 77.884 532.994 78.0994C532.032 78.3314 530.864 78.4723 529.489 78.522C526.937 78.6214 524.699 78.2817 522.777 77.5028C520.871 76.724 519.388 75.5142 518.327 73.8736C517.267 72.233 516.745 70.1615 516.761 67.6591V30.6705Z" fill="black"/>
<path d="M495.711 61.7429V39.8182H506.3V78H496.134V71.0646H495.736C494.874 73.3018 493.441 75.0999 491.435 76.4588C489.447 77.8177 487.019 78.4972 484.152 78.4972C481.6 78.4972 479.354 77.9171 477.415 76.7571C475.477 75.5971 473.96 73.9482 472.866 71.8104C471.789 69.6726 471.242 67.1122 471.226 64.1293V39.8182H481.815V62.2401C481.832 64.4938 482.437 66.2753 483.63 67.5845C484.823 68.8937 486.422 69.5483 488.428 69.5483C489.704 69.5483 490.897 69.2583 492.007 68.6783C493.117 68.0817 494.012 67.2034 494.692 66.0433C495.388 64.8833 495.728 63.4498 495.711 61.7429Z" fill="black"/>
<path d="M426.425 78V27.0909H446.808C450.554 27.0909 453.677 27.6461 456.18 28.7564C458.682 29.8667 460.563 31.4079 461.822 33.38C463.082 35.3355 463.712 37.5893 463.712 40.1413C463.712 42.13 463.314 43.8783 462.518 45.3864C461.723 46.8778 460.629 48.1042 459.237 49.0653C457.862 50.0099 456.287 50.6811 454.514 51.0788V51.576C456.453 51.6589 458.268 52.2057 459.958 53.2166C461.665 54.2275 463.049 55.6444 464.109 57.4673C465.17 59.2737 465.7 61.428 465.7 63.9304C465.7 66.6316 465.029 69.0429 463.687 71.1641C462.361 73.2687 460.397 74.9342 457.795 76.1605C455.194 77.3868 451.987 78 448.175 78H426.425ZM437.188 69.2003H445.963C448.963 69.2003 451.15 68.6286 452.526 67.4851C453.901 66.325 454.589 64.7839 454.589 62.8615C454.589 61.4529 454.249 60.21 453.57 59.1328C452.89 58.0556 451.921 57.2105 450.661 56.5973C449.418 55.9841 447.935 55.6776 446.212 55.6776H437.188V69.2003ZM437.188 48.3942H445.168C446.643 48.3942 447.952 48.1373 449.095 47.6236C450.255 47.0933 451.167 46.3475 451.83 45.3864C452.509 44.4252 452.849 43.2734 452.849 41.9311C452.849 40.0916 452.194 38.6084 450.885 37.4815C449.592 36.3546 447.753 35.7912 445.366 35.7912H437.188V48.3942Z" fill="black"/>
<path d="M406.735 64.0398L406.462 66.7741C406.246 68.9616 405.832 71.1409 405.219 73.3118C404.622 75.4993 403.992 77.4796 403.33 79.2528C402.683 81.026 402.161 82.4181 401.763 83.429H394.903C395.151 82.4512 395.491 81.084 395.922 79.3274C396.353 77.5874 396.759 75.6319 397.14 73.4609C397.521 71.29 397.761 69.0777 397.861 66.8239L397.985 64.0398H406.735Z" fill="black"/>
<path d="M381.042 41.7322C380.843 39.727 379.99 38.1693 378.482 37.0589C376.973 35.9486 374.927 35.3935 372.342 35.3935C370.585 35.3935 369.102 35.642 367.892 36.1392C366.682 36.6198 365.754 37.291 365.108 38.1527C364.478 39.0144 364.163 39.9922 364.163 41.0859C364.13 41.9974 364.321 42.7929 364.735 43.4723C365.166 44.1518 365.754 44.7401 366.5 45.2372C367.246 45.7178 368.107 46.1404 369.085 46.505C370.063 46.853 371.107 47.1513 372.217 47.3999L376.791 48.4936C379.012 48.9908 381.05 49.6536 382.906 50.4822C384.762 51.3108 386.37 52.33 387.729 53.5398C389.088 54.7495 390.14 56.1747 390.886 57.8153C391.648 59.456 392.037 61.3369 392.054 63.4581C392.037 66.5736 391.242 69.2749 389.668 71.5618C388.11 73.8321 385.856 75.5971 382.906 76.8565C379.973 78.0994 376.435 78.7209 372.292 78.7209C368.182 78.7209 364.603 78.0911 361.553 76.8317C358.521 75.5722 356.151 73.7079 354.444 71.2386C352.754 68.7528 351.867 65.6787 351.784 62.0163H362.2C362.316 63.7232 362.804 65.1484 363.666 66.2919C364.545 67.4188 365.713 68.2723 367.171 68.8523C368.646 69.4157 370.312 69.6974 372.168 69.6974C373.991 69.6974 375.573 69.4323 376.915 68.902C378.274 68.3717 379.327 67.6342 380.072 66.6896C380.818 65.745 381.191 64.6596 381.191 63.4332C381.191 62.2898 380.851 61.3286 380.172 60.5497C379.509 59.7708 378.531 59.108 377.239 58.5611C375.963 58.0142 374.397 57.517 372.54 57.0696L366.997 55.6776C362.705 54.6335 359.316 53.0012 356.83 50.7805C354.344 48.5599 353.11 45.5687 353.126 41.8068C353.11 38.7244 353.93 36.0315 355.587 33.728C357.261 31.4245 359.556 29.6264 362.473 28.3338C365.39 27.0412 368.704 26.3949 372.416 26.3949C376.195 26.3949 379.492 27.0412 382.31 28.3338C385.143 29.6264 387.348 31.4245 388.922 33.728C390.496 36.0315 391.308 38.6996 391.358 41.7322H381.042Z" fill="black"/>
<path d="M336.042 41.7322C335.843 39.727 334.99 38.1693 333.482 37.0589C331.973 35.9486 329.927 35.3935 327.342 35.3935C325.585 35.3935 324.102 35.642 322.892 36.1392C321.682 36.6198 320.754 37.291 320.108 38.1527C319.478 39.0144 319.163 39.9922 319.163 41.0859C319.13 41.9974 319.321 42.7929 319.735 43.4723C320.166 44.1518 320.754 44.7401 321.5 45.2372C322.246 45.7178 323.107 46.1404 324.085 46.505C325.063 46.853 326.107 47.1513 327.217 47.3999L331.791 48.4936C334.012 48.9908 336.05 49.6536 337.906 50.4822C339.762 51.3108 341.37 52.33 342.729 53.5398C344.088 54.7495 345.14 56.1747 345.886 57.8153C346.648 59.456 347.037 61.3369 347.054 63.4581C347.037 66.5736 346.242 69.2749 344.668 71.5618C343.11 73.8321 340.856 75.5971 337.906 76.8565C334.973 78.0994 331.435 78.7209 327.292 78.7209C323.182 78.7209 319.603 78.0911 316.553 76.8317C313.521 75.5722 311.151 73.7079 309.444 71.2386C307.754 68.7528 306.867 65.6787 306.784 62.0163H317.2C317.316 63.7232 317.804 65.1484 318.666 66.2919C319.545 67.4188 320.713 68.2723 322.171 68.8523C323.646 69.4157 325.312 69.6974 327.168 69.6974C328.991 69.6974 330.573 69.4323 331.915 68.902C333.274 68.3717 334.327 67.6342 335.072 66.6896C335.818 65.745 336.191 64.6596 336.191 63.4332C336.191 62.2898 335.851 61.3286 335.172 60.5497C334.509 59.7708 333.531 59.108 332.239 58.5611C330.963 58.0142 329.397 57.517 327.54 57.0696L321.997 55.6776C317.705 54.6335 314.316 53.0012 311.83 50.7805C309.344 48.5599 308.11 45.5687 308.126 41.8068C308.11 38.7244 308.93 36.0315 310.587 33.728C312.261 31.4245 314.556 29.6264 317.473 28.3338C320.39 27.0412 323.704 26.3949 327.416 26.3949C331.195 26.3949 334.492 27.0412 337.31 28.3338C340.143 29.6264 342.348 31.4245 343.922 33.728C345.496 36.0315 346.308 38.6996 346.358 41.7322H336.042Z" fill="black"/>
<path d="M268.425 78V27.0909H302.729V35.9652H279.188V48.0959H300.964V56.9702H279.188V69.1257H302.828V78H268.425Z" fill="black"/>
<path d="M222.425 78V27.0909H242.51C246.355 27.0909 249.636 27.7786 252.354 29.1541C255.088 30.513 257.168 32.4437 258.593 34.946C260.035 37.4318 260.756 40.3568 260.756 43.7209C260.756 47.1016 260.027 50.0099 258.568 52.446C257.11 54.8655 254.997 56.7216 252.229 58.0142C249.478 59.3068 246.147 59.9531 242.237 59.9531H228.788V51.3026H240.496C242.551 51.3026 244.258 51.0208 245.617 50.4574C246.976 49.8939 247.987 49.0488 248.65 47.9219C249.329 46.795 249.669 45.3946 249.669 43.7209C249.669 42.0305 249.329 40.6053 248.65 39.4453C247.987 38.2853 246.968 37.407 245.592 36.8104C244.233 36.1972 242.518 35.8906 240.447 35.8906H233.188V78H222.425ZM249.918 54.8324L262.57 78H250.688L238.309 54.8324H249.918Z" fill="black"/>
<path d="M175.486 35.9652V27.0909H217.297V35.9652H201.711V78H191.072V35.9652H175.486Z" fill="black"/>
<path d="M161.042 41.7322C160.843 39.727 159.99 38.1693 158.482 37.0589C156.973 35.9486 154.927 35.3935 152.342 35.3935C150.585 35.3935 149.102 35.642 147.892 36.1392C146.682 36.6198 145.754 37.291 145.108 38.1527C144.478 39.0144 144.163 39.9922 144.163 41.0859C144.13 41.9974 144.321 42.7929 144.735 43.4723C145.166 44.1518 145.754 44.7401 146.5 45.2372C147.246 45.7178 148.107 46.1404 149.085 46.505C150.063 46.853 151.107 47.1513 152.217 47.3999L156.791 48.4936C159.012 48.9908 161.05 49.6536 162.906 50.4822C164.762 51.3108 166.37 52.33 167.729 53.5398C169.088 54.7495 170.14 56.1747 170.886 57.8153C171.648 59.456 172.037 61.3369 172.054 63.4581C172.037 66.5736 171.242 69.2749 169.668 71.5618C168.11 73.8321 165.856 75.5971 162.906 76.8565C159.973 78.0994 156.435 78.7209 152.292 78.7209C148.182 78.7209 144.603 78.0911 141.553 76.8317C138.521 75.5722 136.151 73.7079 134.444 71.2386C132.754 68.7528 131.867 65.6787 131.784 62.0163H142.2C142.316 63.7232 142.804 65.1484 143.666 66.2919C144.545 67.4188 145.713 68.2723 147.171 68.8523C148.646 69.4157 150.312 69.6974 152.168 69.6974C153.991 69.6974 155.573 69.4323 156.915 68.902C158.274 68.3717 159.327 67.6342 160.072 66.6896C160.818 65.745 161.191 64.6596 161.191 63.4332C161.191 62.2898 160.851 61.3286 160.172 60.5497C159.509 59.7708 158.531 59.108 157.239 58.5611C155.963 58.0142 154.397 57.517 152.54 57.0696L146.997 55.6776C142.705 54.6335 139.316 53.0012 136.83 50.7805C134.344 48.5599 133.11 45.5687 133.126 41.8068C133.11 38.7244 133.93 36.0315 135.587 33.728C137.261 31.4245 139.556 29.6264 142.473 28.3338C145.39 27.0412 148.704 26.3949 152.416 26.3949C156.195 26.3949 159.492 27.0412 162.31 28.3338C165.143 29.6264 167.348 31.4245 168.922 33.728C170.496 36.0315 171.308 38.6996 171.358 41.7322H161.042Z" fill="black"/>
<path d="M117.535 39.8182V47.7727H94.5412V39.8182H117.535ZM99.7614 30.6705H110.351V66.267C110.351 67.2448 110.5 68.0071 110.798 68.554C111.097 69.0843 111.511 69.4571 112.041 69.6726C112.588 69.888 113.218 69.9957 113.93 69.9957C114.428 69.9957 114.925 69.9543 115.422 69.8714C115.919 69.772 116.3 69.6974 116.565 69.6477L118.231 77.5277C117.701 77.6934 116.955 77.884 115.994 78.0994C115.032 78.3314 113.864 78.4723 112.489 78.522C109.937 78.6214 107.699 78.2817 105.777 77.5028C103.871 76.724 102.388 75.5142 101.327 73.8736C100.267 72.233 99.7448 70.1615 99.7614 67.6591V30.6705Z" fill="black"/>
<path d="M71.4773 78.7457C67.616 78.7457 64.2768 77.9254 61.4595 76.2848C58.6589 74.6276 56.4962 72.3241 54.9716 69.3743C53.447 66.4079 52.6847 62.9692 52.6847 59.0582C52.6847 55.1141 53.447 51.6671 54.9716 48.7173C56.4962 45.7509 58.6589 43.4474 61.4595 41.8068C64.2768 40.1496 67.616 39.321 71.4773 39.321C75.3385 39.321 78.6695 40.1496 81.4702 41.8068C84.2874 43.4474 86.4583 45.7509 87.983 48.7173C89.5076 51.6671 90.2699 55.1141 90.2699 59.0582C90.2699 62.9692 89.5076 66.4079 87.983 69.3743C86.4583 72.3241 84.2874 74.6276 81.4702 76.2848C78.6695 77.9254 75.3385 78.7457 71.4773 78.7457ZM71.527 70.5426C73.2836 70.5426 74.7502 70.0455 75.9268 69.0511C77.1035 68.0402 77.9901 66.6648 78.5866 64.9247C79.1998 63.1847 79.5064 61.2043 79.5064 58.9837C79.5064 56.763 79.1998 54.7827 78.5866 53.0426C77.9901 51.3026 77.1035 49.9271 75.9268 48.9162C74.7502 47.9053 73.2836 47.3999 71.527 47.3999C69.7538 47.3999 68.2623 47.9053 67.0526 48.9162C65.8594 49.9271 64.9562 51.3026 64.343 53.0426C63.7464 54.7827 63.4482 56.763 63.4482 58.9837C63.4482 61.2043 63.7464 63.1847 64.343 64.9247C64.9562 66.6648 65.8594 68.0402 67.0526 69.0511C68.2623 70.0455 69.7538 70.5426 71.527 70.5426Z" fill="black"/>
<path d="M47.0064 27.0909V78H37.7095L15.5611 45.9581H15.1882V78H4.42472V27.0909H13.8707L35.8452 59.108H36.2926V27.0909H47.0064Z" fill="black"/>
</svg>
